<svg width="600" height="600" viewBox="0 0 600 600" xmlns="http://www.w3.org/2000/svg" style="background: #000000;">
  <defs>
    <filter id="glow" x="-50%" y="-50%" width="200%" height="200%">
      <feGaussianBlur stdDeviation="9" result="coloredBlur"/>
      <feMerge>
        <feMergeNode in="coloredBlur"/>
        <feMergeNode in="SourceGraphic"/>
      </feMerge>
    </filter>
  </defs>
  <path d="M 57 165 L 165 57 L 435 57 L 543 165 L 543 435 L 435 543 L 165 543 L 57 435 Z" fill="none" stroke="#ffffff" stroke-width="32" stroke-linejoin="round" filter="url(#glow)" opacity="0.22"/>
  <path d="M 57 165 L 165 57 L 435 57 L 543 165 L 543 435 L 435 543 L 165 543 L 57 435 Z" fill="none" stroke="#ffffff" stroke-width="24" stroke-linejoin="round" filter="url(#glow)" opacity="0.35"/>
  <path d="M 57 165 L 165 57 L 435 57 L 543 165 L 543 435 L 435 543 L 165 543 L 57 435 Z" fill="none" stroke="#ffffff" stroke-width="11" stroke-linejoin="round"/>
  <g transform="translate(300 300)">
    <circle r="180" fill="none" stroke="#d7d7e4" stroke-width="60" opacity="0.38"/>
    <circle r="120" fill="none" stroke="#ececf6" stroke-width="60" opacity="0.68"/>
    <circle r="60" fill="none" stroke="#ffffff" stroke-width="60" opacity="0.94"/>
    <circle r="30" fill="#050505"/>
  </g>
</svg>
