<svg width="600" height="600" viewBox="0 0 600 600" xmlns="http://www.w3.org/2000/svg" style="background: #000000;">
  <defs>
    <filter id="glow" x="-50%" y="-50%" width="200%" height="200%">
      <feGaussianBlur stdDeviation="9" result="coloredBlur"/>
      <feMerge>
        <feMergeNode in="coloredBlur"/>
        <feMergeNode in="SourceGraphic"/>
      </feMerge>
    </filter>
  </defs>
  <path d="M 30 150 L 150 30 L 450 30 L 570 150 L 570 450 L 450 570 L 150 570 L 30 450 Z" fill="none" stroke="#ffffff" stroke-width="32" stroke-linejoin="round" filter="url(#glow)" opacity="0.22"/>
  <path d="M 30 150 L 150 30 L 450 30 L 570 150 L 570 450 L 450 570 L 150 570 L 30 450 Z" fill="none" stroke="#ffffff" stroke-width="24" stroke-linejoin="round" filter="url(#glow)" opacity="0.35"/>
  <path d="M 30 150 L 150 30 L 450 30 L 570 150 L 570 450 L 450 570 L 150 570 L 30 450 Z" fill="none" stroke="#ffffff" stroke-width="11" stroke-linejoin="round"/>
  <g transform="translate(300 300)">
    <circle r="270" fill="none" stroke="#ffffff" stroke-width="19" opacity="0.13"/>
    <circle r="238" fill="none" stroke="#ffffff" stroke-width="21" opacity="0.20"/>
    <circle r="199" fill="none" stroke="#ffffff" stroke-width="29" opacity="0.48"/>
    <circle r="166" fill="none" stroke="#ffffff" stroke-width="26" opacity="0.72"/>
    <circle r="130" fill="none" stroke="#f0f0ff" stroke-width="19" opacity="0.92"/>
    <circle r="90" fill="none" stroke="#ffffff" stroke-width="14" opacity="0.98"/>
    <circle r="47" fill="#050505"/>
  </g>
</svg>
